<svg width="60" height="61" xmlns="http://www.w3.org/2000/svg" xmlns:xlink="http://www.w3.org/1999/xlink" xml:space="preserve" overflow="hidden"><g transform="translate(-157 -349)"><path d="M19.49 32.08C16.9177 32.9474 14.5072 34.2357 12.3569 35.8925 10.8966 37.0329 10.0303 38.7724 10 40.625L10 51.6063 10.5562 51.9775C11.855 52.8431 14.0994 53.5231 16.875 54.0212L16.875 50 28.75 50 28.75 55.0294C29.2237 55.0364 29.6981 55.0402 30.1731 55.0406 30.5325 55.0406 30.8912 55.0362 31.25 55.0325L31.25 50 43.125 50 43.125 54.0662C46.0062 53.5563 48.285 52.8469 49.5 51.9375L50 51.5625 50 40.5988C49.9668 38.7639 49.1101 37.0412 47.6669 35.9075 45.5179 34.2497 43.109 32.9595 40.5381 32.0894L36.6413 30.5269C36.4058 30.4319 36.2511 30.2039 36.25 29.95L36.25 28.42C38.6196 26.5265 39.9994 23.6582 40 20.625L40 16.25 40.625 16.25C41.3154 16.25 41.875 15.6904 41.875 15 41.875 14.3096 41.3154 13.75 40.625 13.75L40 13.75C39.7824 10.2986 37.7969 7.20456 34.75 5.56875L33.75 9.525C33.6795 9.81075 33.4192 10.0086 33.125 10L32.975 10C32.6371 9.92931 32.4205 9.59813 32.4912 9.26031 32.4912 9.26019 32.4912 9.26013 32.4912 9.26 32.4912 9.24813 32.4969 9.23688 32.5 9.225L33.6875 4.54375C33.4792 3.71336 32.7349 3.12952 31.8787 3.125L28.1287 3.125C27.2712 3.12781 26.5249 3.71201 26.3162 4.54375L27.5037 9.225C27.5943 9.5575 27.3986 9.90056 27.0662 9.99188L27.0287 10 26.8787 10C26.5846 10.0086 26.3243 9.81075 26.2537 9.525L25.285 5.56875C22.2381 7.20456 20.2526 10.2986 20.035 13.75L19.3787 13.75C18.6884 13.75 18.1287 14.3096 18.1287 15 18.1287 15.6904 18.6884 16.25 19.3787 16.25L20.0037 16.25 20.0037 20.625C20.0046 23.6559 21.3827 26.5222 23.7494 28.4156L23.7494 29.95C23.7504 30.2026 23.5984 30.4306 23.365 30.5269ZM22.5 20.625 22.5 16.25 37.5 16.25 37.5 20.625C37.5 24.7671 34.1421 28.125 30 28.125 25.8579 28.125 22.5 24.7671 22.5 20.625ZM28.75 47.5 17.0737 47.5 19.035 34.9856 24.3081 32.8413C24.3456 32.8256 24.3787 32.8044 24.4156 32.7875L28.7531 43.125ZM30 33.125C28.32 33.1416 26.6473 32.9011 25.04 32.4119 25.803 31.8231 26.2499 30.9138 26.25 29.95L26.25 29.8875C28.6546 30.87 31.3486 30.87 33.7531 29.8875L33.7531 29.95C33.7521 30.9183 34.2031 31.8315 34.9725 32.4194 33.3602 32.9049 31.6837 33.1429 30 33.125ZM31.25 47.5 31.25 43.125 35.5863 32.7906C35.6231 32.8075 35.6569 32.8294 35.695 32.845L41.0075 34.97 42.9375 47.5Z" transform="matrix(1 0 0 1.01667 157 349)"/></g></svg>