<svg width="63" height="62" xmlns="http://www.w3.org/2000/svg" xmlns:xlink="http://www.w3.org/1999/xlink" xml:space="preserve" overflow="hidden"><g transform="translate(-662 -455)"><path d="M55.5417 45.8542 53.6042 47.7917 9.04167 47.7917 6.45833 45.2083 6.45833 32.2917 9.04167 29.7083 53.6042 29.7083 55.5417 31.6458 55.5417 45.8542ZM2.58333 25.8333 2.58333 51.6667 59.4167 51.6667 59.4167 25.8333 2.58333 25.8333Z" fill="#FFFFFF" transform="matrix(1.01613 0 0 1 662 455)"/><path d="M36.1667 38.75C36.1667 42.3168 33.8535 45.2083 31 45.2083 28.1465 45.2083 25.8333 42.3168 25.8333 38.75 25.8333 35.1832 28.1465 32.2917 31 32.2917 33.8535 32.2917 36.1667 35.1832 36.1667 38.75Z" fill="#FFFFFF" transform="matrix(1.01613 0 0 1 662 455)"/><path d="M16.7917 38.75C16.7917 39.82 15.9242 40.6875 14.8542 40.6875 13.7841 40.6875 12.9167 39.82 12.9167 38.75 12.9167 37.6799 13.7841 36.8125 14.8542 36.8125 15.9242 36.8125 16.7917 37.6799 16.7917 38.75Z" fill="#FFFFFF" transform="matrix(1.01613 0 0 1 662 455)"/><path d="M49.0833 38.75C49.0833 39.82 48.2159 40.6875 47.1458 40.6875 46.0758 40.6875 45.2083 39.82 45.2083 38.75 45.2083 37.6799 46.0758 36.8125 47.1458 36.8125 48.2159 36.8125 49.0833 37.6799 49.0833 38.75Z" fill="#FFFFFF" transform="matrix(1.01613 0 0 1 662 455)"/><path d="M42.5604 13.3687 43.5292 15.8229 47.4042 15.0479 44.6917 8.26667 9.94583 22.475 29.8375 18.5354Z" fill="#FFFFFF" transform="matrix(1.01613 0 0 1 662 455)"/><path d="M39.2021 23.25 49.4062 21.2479 49.8583 23.25 53.7979 23.25 52.5062 16.6625 19.375 23.25Z" fill="#FFFFFF" transform="matrix(1.01613 0 0 1 662 455)"/></g></svg>