<svg width="83" height="83" xmlns="http://www.w3.org/2000/svg" xmlns:xlink="http://www.w3.org/1999/xlink" xml:space="preserve" overflow="hidden"><g transform="translate(-201 -445)"><path d="M233.854 470.071 251.146 470.071 251.146 478.717 233.854 478.717Z" fill="#FFFFFF"/><path d="M213.104 470.071 230.396 470.071 230.396 478.717 213.104 478.717Z" fill="#FFFFFF"/><path d="M213.104 482.175 220.021 482.175 220.021 490.821 213.104 490.821Z" fill="#FFFFFF"/><path d="M264.979 482.177 271.896 482.177 271.896 490.823 264.979 490.823Z" fill="#FFFFFF"/><path d="M223.479 482.177 240.771 482.177 240.771 490.823 223.479 490.823Z" fill="#FFFFFF"/><path d="M244.229 482.177 261.521 482.177 261.521 490.823 244.229 490.823Z" fill="#FFFFFF"/><path d="M233.854 494.281 251.146 494.281 251.146 502.927 233.854 502.927Z" fill="#FFFFFF"/><path d="M213.104 494.281 230.396 494.281 230.396 502.927 213.104 502.927Z" fill="#FFFFFF"/><path d="M213.104 506.385 220.021 506.385 220.021 515.031 213.104 515.031Z" fill="#FFFFFF"/><path d="M264.979 506.385 271.896 506.385 271.896 515.031 264.979 515.031Z" fill="#FFFFFF"/><path d="M254.604 494.281 271.896 494.281 271.896 502.927 254.604 502.927Z" fill="#FFFFFF"/><path d="M223.479 506.385 240.771 506.385 240.771 515.031 223.479 515.031Z" fill="#FFFFFF"/><path d="M244.229 506.385 261.521 506.385 261.521 515.031 244.229 515.031Z" fill="#FFFFFF"/><path d="M252.875 460.454 268.769 453.643 272.15 461.533 256.256 468.344Z" fill="#FFFFFF"/></g></svg>