<svg width="56" height="56" xmlns="http://www.w3.org/2000/svg" xmlns:xlink="http://www.w3.org/1999/xlink" xml:space="preserve" overflow="hidden"><g transform="translate(-214 -567)"><path d="M216.392 592.783 219.6 584.383C219.717 584.033 219.95 583.742 220.183 583.508L221.875 581.817 221 580.883C220.533 580.417 220.533 579.6 221 579.133L222.808 577.325C223.275 576.858 224.092 576.858 224.558 577.325L225.492 578.2 230.683 573.008C231.15 572.542 231.967 572.542 232.433 573.008L238.092 578.725C238.558 579.192 238.558 580.008 238.092 580.475L233.075 585.55 262.125 613.317C262.592 613.783 262.592 614.6 262.125 615.067L258.683 618.508C258.217 618.975 257.4 618.975 256.933 618.508L229.167 589.458 227.708 590.917C227.417 591.208 227.067 591.383 226.717 591.5L217.967 594.358C217.5 594.475 217.033 594.358 216.683 594.008 216.333 593.717 216.217 593.192 216.392 592.783Z" fill="#FFFFFF"/><path d="M251.392 583.567 243.808 578.55C243.517 578.317 243.342 578.025 243.283 577.675 243.283 577.325 243.4 576.975 243.633 576.683L248.883 571.492C249.292 571.083 249.992 571.025 250.458 571.375L259.383 577.325C259.442 577.325 259.5 577.383 259.5 577.442L259.558 577.5 261.25 579.192 261.367 579.308 261.425 579.367 261.425 579.425 267.433 588.175C267.783 588.642 267.725 589.342 267.317 589.75L262.067 594.942C261.833 595.175 261.425 595.35 261.075 595.292 260.725 595.233 260.375 595.058 260.142 594.767L255.242 587.417 247.308 595.7 242.992 591.558 251.392 583.567Z" fill="#FFFFFF"/><path d="M225.492 618.508C225.025 618.975 224.208 618.975 223.742 618.508L220.242 615.008C219.775 614.542 219.775 613.725 220.242 613.258L235 599.2 239.492 603.867 225.492 618.508Z" fill="#FFFFFF"/></g></svg>