<svg width="49" height="50" xmlns="http://www.w3.org/2000/svg" xmlns:xlink="http://www.w3.org/1999/xlink" xml:space="preserve" overflow="hidden"><g transform="translate(-166 -57)"><path d="M43.3854 18.375C44.2311 18.375 44.9167 17.6895 44.9167 16.8438L44.9167 11.7396C44.9167 10.8939 44.2311 10.2083 43.3854 10.2083L39.8125 10.2083 39.8125 7.65625C39.8125 6.52869 38.8984 5.61458 37.7708 5.61458 36.6433 5.61458 35.7292 6.52869 35.7292 7.65625L35.7292 10.2083 13.2708 10.2083 13.2708 7.65625C13.2708 6.52869 12.3567 5.61458 11.2292 5.61458 10.1016 5.61458 9.1875 6.52869 9.1875 7.65625L9.1875 10.2083 5.61458 10.2083C4.7689 10.2083 4.08333 10.8939 4.08333 11.7396L4.08333 16.8438C4.08333 17.6895 4.7689 18.375 5.61458 18.375L9.1875 18.375 9.1875 23.4792 5.61458 23.4792C4.7689 23.4792 4.08333 24.1647 4.08333 25.0104L4.08333 30.1146C4.08333 30.9603 4.7689 31.6458 5.61458 31.6458L9.1875 31.6458 9.1875 40.3949C8.28769 40.6255 7.65788 41.4357 7.65625 42.3646L7.65625 43.3854 14.8021 43.3854 14.8021 42.3646C14.8005 41.4357 14.1706 40.6255 13.2708 40.3949L13.2708 31.6458 35.7292 31.6458 35.7292 40.3949C34.8294 40.6255 34.1996 41.4357 34.1979 42.3646L34.1979 43.3854 41.3438 43.3854 41.3438 42.3646C41.3421 41.4357 40.7123 40.6255 39.8125 40.3949L39.8125 31.6458 43.3854 31.6458C44.2311 31.6458 44.9167 30.9603 44.9167 30.1146L44.9167 25.0104C44.9167 24.1647 44.2311 23.4792 43.3854 23.4792L39.8125 23.4792 39.8125 18.375ZM39.7431 16.3333 35.6598 12.25 39.9901 12.25 42.875 15.1344 42.875 16.3333ZM29.5858 16.3333 25.5025 12.25 29.8328 12.25 33.9162 16.3333ZM19.1958 16.3333 15.1124 12.25 19.4433 12.25 23.5266 16.3333ZM9.31102 12.25 13.3944 16.3333 9.06398 16.3333 6.125 13.3944 6.125 12.25ZM29.8298 25.5208 33.9131 29.6042 29.5837 29.6042 25.5004 25.5208ZM19.4433 25.5208 23.5266 29.6042 19.1958 29.6042 15.1124 25.5208ZM9.31102 25.5208 13.3944 29.6042 9.06398 29.6042 6.125 26.6652 6.125 25.5208ZM39.7431 29.6042 35.6598 25.5208 39.9901 25.5208 42.875 28.4052 42.875 29.6042ZM35.7292 23.4792 13.2708 23.4792 13.2708 18.375 35.7292 18.375Z" transform="matrix(1 0 0 1.02041 166 57)"/></g></svg>