<svg width="76" height="75" xmlns="http://www.w3.org/2000/svg" xmlns:xlink="http://www.w3.org/1999/xlink" xml:space="preserve" overflow="hidden"><g transform="translate(-657 -559)"><path d="M63.4375 51.0156 52.5 44.2969 53.75 49.375C53.8281 49.8438 53.9062 50.3125 53.9062 50.7031 53.9062 56.0156 46.875 60.0781 37.5 60.0781 28.125 60.0781 21.0938 56.0156 21.0938 50.7031 21.0938 50.2344 21.1719 49.8438 21.25 49.375L22.5 44.2969 11.5625 51.0156C10.5469 51.6406 10.5469 53.0469 11.5625 53.6719L35.8594 68.5156C36.875 69.1406 38.125 69.1406 39.1406 68.5156L63.4375 53.6719C64.4531 53.0469 64.4531 51.6406 63.4375 51.0156Z" fill="#FFFFFF" transform="matrix(1.01333 0 0 1 657 559)"/><path d="M32.2656 33.8281C33.8281 34.2188 35.625 34.375 37.5 34.375 39.375 34.375 41.0938 34.1406 42.7344 33.8281L44.5312 41.1719C42.5 41.875 40.0781 42.2656 37.5 42.2656 34.9219 42.2656 32.5 41.875 30.4688 41.1719L32.2656 33.8281ZM36.3281 17.1094C36.7188 17.1094 37.1094 17.1875 37.5 17.1875 37.8906 17.1875 38.2812 17.1875 38.6719 17.1094L40.5469 24.7656C39.5312 24.9219 38.5156 25 37.5 25 36.4844 25 35.4688 24.9219 34.4531 24.8438L36.3281 17.1094ZM37.5 57.8125C45.2344 57.8125 51.5625 54.6875 51.5625 50.7812 51.5625 50.4688 51.4844 50.2344 51.4844 50L41.3281 8.28125C41.0938 7.10938 39.4531 6.25 37.5 6.25 35.5469 6.25 33.9062 7.10938 33.6719 8.28125L23.5156 50C23.4375 50.2344 23.4375 50.5469 23.4375 50.7812 23.4375 54.6875 29.7656 57.8125 37.5 57.8125Z" fill="#FFFFFF" transform="matrix(1.01333 0 0 1 657 559)"/></g></svg>